PathFileType	4	(X/Y/Z)	Patient4_TMGait_0pt4_01_right_17.trc.trc
DataRate	CameraRate	NumFrames	NumMarkers	Units	OrigDataRate	OrigDataStartFrame	OrigNumFrames
74.074074074074	74.074074074074	4	33	mm	74.074074074074	124	       141
Frame#	Time	Sacral			L.Shoulder			Chest			R.Shoulder			Neck			R.ASIS			L.ASIS			R.Thigh.Superior			R.Thigh.Lateral			R.Thigh.Inferior			R.Patella			L.Thigh.Superior			L.Thigh.Lateral			L.Thigh.Inferior			L.Patella			L.Shank.Superior			L.Shank.Lateral			L.Shank.Inferior			R.Shank.Superior			R.Shank.Lateral			R.Shank.Inferior			R.Heel			R.Midfoot.Superior			R.Midfoot.Lateral			R.Toe			L.Heel			L.Midfoot.Lateral			L.Midfoot.Superior			L.Toe			L.Elbow			L.Wrist			R.Elbow			R.Wrist			
		X1	Y1	Z1	X2	Y2	Z2	X3	Y3	Z3	X4	Y4	Z4	X5	Y5	Z5	X6	Y6	Z6	X7	Y7	Z7	X8	Y8	Z8	X9	Y9	Z9	X10	Y10	Z10	X11	Y11	Z11	X12	Y12	Z12	X13	Y13	Z13	X14	Y14	Z14	X15	Y15	Z15	X16	Y16	Z16	X17	Y17	Z17	X18	Y18	Z18	X19	Y19	Z19	X20	Y20	Z20	X21	Y21	Z21	X22	Y22	Z22	X23	Y23	Z23	X24	Y24	Z24	X25	Y25	Z25	X26	Y26	Z26	X27	Y27	Z27	X28	Y28	Z28	X29	Y29	Z29	X30	Y30	Z30	X31	Y31	Z31	X32	Y32	Z32	X33	Y33	Z33	

124	23.610500000000	577.272732597780	1004.469885623712	373.099058097505	785.179930858541	1431.929951828736	209.943879679177	872.890695177397	1358.837038071843	377.125922754267	777.313728472399	1435.481532531939	543.938430961405	764.415521294018	1490.967651083144	365.907050257584	799.203358527903	936.932866368662	504.682351986388	801.126307323918	958.922699492897	230.020139432653	859.605825483994	749.136409170575	482.683489546374	796.065303052726	634.139235017374	551.068134631130	882.615090286934	590.440246748500	472.823769717202	901.896086132157	505.254144446381	488.445996201313	814.151333999685	732.906671939346	251.535350318955	707.155916335592	632.499881819372	184.920488233520	777.381696712569	541.327114663747	244.063858565764	765.791734393405	471.920133268319	249.355605722162	728.280240534828	405.881759323407	239.897504471824	619.474034938155	306.972705829219	194.088817029130	660.143846696317	186.594308024261	255.362501754001	878.964820882250	415.387576927938	501.383209497889	814.094315946499	308.386018726348	566.231224823385	873.225930100596	215.144475803050	514.580801438417	759.826361140964	39.571894951043	488.760815912943	928.200743532280	101.894884448133	530.257995288426	841.281254132106	36.321931773231	565.705267711508	1047.694112510149	54.931630910901	561.550172136583	522.969745486478	38.063411702133	306.592137533172	585.754923002421	33.993382919130	217.181344285562	673.120130873650	94.341872328000	234.152893393826	796.318290701909	39.412191632905	187.763854384610	777.626741066155	1159.230942676278	-17.409707222746	992.503438131028	1026.719185946490	-97.443673575828	696.127469012242	1103.442260086802	671.158625278359	805.014304103357	866.222413762719	689.411871108845	
125	23.624000000000	578.529443948170	1003.241704461857	376.902308798392	783.739811812923	1431.453197441746	213.547040116486	872.870399321722	1358.617447908412	380.187850464125	777.866531920387	1434.625038641510	547.617659031971	764.233688141041	1490.351394527016	369.796069752103	801.064698295176	936.038153575356	507.546919776201	802.118612876251	958.492268352669	233.025192342012	860.293399186164	746.952505253592	485.507629688380	794.571406363844	632.525473869583	552.622239188552	880.841400804708	588.532827625563	474.497586730793	898.020898988736	503.579995504763	488.983676724509	815.427288813098	732.033337768885	254.129926737850	708.416681644769	631.566059709421	187.395677498326	779.083093148024	540.208322408051	245.994587528365	767.632491649623	469.950058003548	250.586814827743	728.316328808373	404.467708638568	241.255521896413	617.437195244827	307.656612742468	195.518909403876	656.587579060826	186.314110122408	255.923369697537	876.409169697446	413.501787045706	501.932743880923	812.529163765060	305.938979022319	566.780192237112	871.639661101463	213.243965660736	514.135686457989	758.367320889933	38.605804121496	488.557335591090	927.148509710522	100.196146561652	528.709221337485	840.315750629106	35.192627047360	564.911709655037	1046.885276004558	52.635867622609	558.873409033887	517.543749000350	38.819271332547	306.486229853672	580.402450176662	34.385230741826	217.224984760679	668.074702969982	94.471505463972	234.171460390571	790.952546588464	39.222707274048	187.680319010162	775.794359633292	1157.293643069240	-12.613040678355	990.828509003936	1024.981874569781	-92.661512100732	701.319870556718	1101.633947655198	675.332914013930	814.514615924065	866.287757311832	691.119172088352	
126	23.637500000000	579.727288959344	1002.202321083262	380.829875870603	782.349909662481	1431.193309984411	217.259136889065	872.869087816717	1358.584423547658	383.358857210606	778.424606222659	1433.939342609163	551.394176205298	764.119021322750	1489.933476819304	373.806973376277	802.883535858641	935.465209932903	510.534724485966	802.987793958652	958.227722148578	236.143125131639	861.470820806818	745.512991115730	488.279734198447	793.881766070726	631.497819763138	554.199915979639	879.954095476902	587.242155202650	476.313588541941	895.052621028711	502.244499583668	489.762230275240	817.032195752736	731.396927203390	256.811773412624	710.258344077389	630.653303399347	189.965363361641	781.687642931665	539.219991049306	247.925621351290	770.535137301151	467.977914548671	251.724783574610	729.191837685713	403.125859365812	242.586036193521	616.080128538439	308.696699761570	196.973707781169	653.448146847221	186.314441763773	256.429754058735	874.201215721894	411.967107019204	502.587328324236	810.659087495038	304.303124864622	567.406185223450	869.027669164549	211.782557611576	513.773058573944	754.866842867003	38.466461455686	488.204387674229	924.080371333937	98.977170496665	527.527740230324	837.056230442165	34.791449542124	564.248038605747	1043.821303356545	50.544400672443	557.024672924864	512.226505190120	40.256343002805	306.326228114107	575.151004816332	35.171550758296	217.249901766935	663.295645303223	94.744851995489	234.104899135431	785.643689102574	38.962846485695	187.584881498106	773.529792055939	1155.422788921714	-7.561334858381	988.478148777100	1023.036245878891	-87.878126762417	706.851117865289	1099.952042495811	679.609971971701	824.033281678858	866.449481547982	693.053028837367	
127	23.651000000000	580.824313663807	1001.400665103076	384.851903971878	781.072757055686	1431.167214641351	221.024222846339	872.898896145376	1358.726032439554	386.592196980348	779.011217636875	1433.455787453365	555.209635746727	764.101215662948	1489.734461044287	377.866955001750	804.606142506187	935.236113793267	513.630836770923	803.660772616044	958.144248233852	239.331322431630	862.928165562006	744.732970120543	491.016376186454	793.775409554325	630.993446905483	555.869498874535	879.681592879613	586.460238488599	478.288962099920	892.816381020232	501.239066870699	490.797505334446	818.921723581366	731.072061232520	259.532109149315	712.698272608142	629.820830184526	192.562133260922	785.232869986270	538.441278304709	249.782007853634	774.525720156868	466.099903942403	252.703024178159	730.977358182229	401.933391336110	243.825398607607	615.504889825176	310.169378297534	198.392933495373	650.806171145295	186.689821018383	256.835284868769	872.255978242649	410.782326955905	503.365156232344	808.599055215176	303.339907360368	568.182115913988	865.676817025816	210.702764681922	513.559811089422	749.913122902740	38.827988235427	487.841470620262	919.537351918327	98.176538749483	526.769295544419	832.156865993652	34.872470962597	563.796942260651	1039.139710437866	48.771639205433	555.975831050375	507.086980637848	42.566914337367	306.103727639678	570.042203919025	36.478972406795	217.242772215537	658.855778273502	95.204146393464	233.928183199804	780.401235627063	38.632569946712	187.482565167279	770.867608562151	1153.651228061022	-2.299149764796	985.456628473992	1020.845592464397	-83.087844078484	712.678658951072	1098.454368701785	683.935426255898	833.527028598991	866.753690826645	695.195531323389	
